<svg width="167" height="41" viewBox="0 0 167 41" fill="none" xmlns="http://www.w3.org/2000/svg">
<rect width="8" height="7" fill="#D9D9D9"/>
<rect x="8" y="8" width="8" height="7" fill="#D9D9D9"/>
<rect x="8" y="16" width="8" height="8" fill="#D9D9D9"/>
<rect y="24" width="8" height="8" fill="#D9D9D9"/>
<rect x="16" y="25" width="8" height="7" fill="#D9D9D9"/>
<rect x="8" y="33" width="8" height="8" fill="#D9D9D9"/>
<rect x="25" y="25" width="7" height="7" fill="#D9D9D9"/>
<rect x="25" y="33" width="7" height="7" fill="#D9D9D9"/>
<rect x="33" y="33" width="8" height="7" fill="#D9D9D9"/>
<rect x="17" y="16" width="8" height="8" fill="#D9D9D9"/>
<rect x="25" y="8" width="8" height="8" fill="#D9D9D9"/>
<rect x="33" width="8" height="8" fill="#D9D9D9"/>
<path d="M76.488 31.88L74.328 28.976C73.688 29.104 73.064 29.168 72.456 29.168C70.872 29.168 69.416 28.8 68.088 28.064C66.776 27.328 65.728 26.304 64.944 24.992C64.176 23.664 63.792 22.176 63.792 20.528C63.792 18.88 64.176 17.4 64.944 16.088C65.728 14.776 66.776 13.752 68.088 13.016C69.416 12.28 70.872 11.912 72.456 11.912C74.04 11.912 75.488 12.28 76.8 13.016C78.128 13.752 79.168 14.776 79.92 16.088C80.688 17.4 81.072 18.88 81.072 20.528C81.072 21.968 80.776 23.288 80.184 24.488C79.608 25.672 78.8 26.656 77.76 27.44L81.456 31.88H76.488ZM67.992 20.528C67.992 22.016 68.392 23.208 69.192 24.104C70.008 24.984 71.096 25.424 72.456 25.424C73.8 25.424 74.872 24.976 75.672 24.08C76.488 23.184 76.896 22 76.896 20.528C76.896 19.04 76.488 17.856 75.672 16.976C74.872 16.08 73.8 15.632 72.456 15.632C71.096 15.632 70.008 16.072 69.192 16.952C68.392 17.832 67.992 19.024 67.992 20.528ZM91.9941 29L88.4901 22.64H87.5061V29H83.4021V12.152H90.2901C91.6181 12.152 92.7461 12.384 93.6741 12.848C94.6181 13.312 95.3221 13.952 95.7861 14.768C96.2501 15.568 96.4821 16.464 96.4821 17.456C96.4821 18.576 96.1621 19.576 95.5221 20.456C94.8981 21.336 93.9701 21.96 92.7381 22.328L96.6261 29H91.9941ZM87.5061 19.736H90.0501C90.8021 19.736 91.3621 19.552 91.7301 19.184C92.1141 18.816 92.3061 18.296 92.3061 17.624C92.3061 16.984 92.1141 16.48 91.7301 16.112C91.3621 15.744 90.8021 15.56 90.0501 15.56H87.5061V19.736ZM98.3623 20.552C98.3623 18.888 98.7223 17.408 99.4423 16.112C100.162 14.8 101.162 13.784 102.442 13.064C103.738 12.328 105.202 11.96 106.834 11.96C108.834 11.96 110.546 12.488 111.97 13.544C113.394 14.6 114.346 16.04 114.826 17.864H110.314C109.978 17.16 109.498 16.624 108.874 16.256C108.266 15.888 107.57 15.704 106.786 15.704C105.522 15.704 104.498 16.144 103.714 17.024C102.93 17.904 102.538 19.08 102.538 20.552C102.538 22.024 102.93 23.2 103.714 24.08C104.498 24.96 105.522 25.4 106.786 25.4C107.57 25.4 108.266 25.216 108.874 24.848C109.498 24.48 109.978 23.944 110.314 23.24H114.826C114.346 25.064 113.394 26.504 111.97 27.56C110.546 28.6 108.834 29.12 106.834 29.12C105.202 29.12 103.738 28.76 102.442 28.04C101.162 27.304 100.162 26.288 99.4423 24.992C98.7223 23.696 98.3623 22.216 98.3623 20.552ZM125.308 29.168C123.724 29.168 122.268 28.8 120.94 28.064C119.628 27.328 118.58 26.304 117.796 24.992C117.028 23.664 116.644 22.176 116.644 20.528C116.644 18.88 117.028 17.4 117.796 16.088C118.58 14.776 119.628 13.752 120.94 13.016C122.268 12.28 123.724 11.912 125.308 11.912C126.892 11.912 128.34 12.28 129.652 13.016C130.98 13.752 132.02 14.776 132.772 16.088C133.54 17.4 133.924 18.88 133.924 20.528C133.924 22.176 133.54 23.664 132.772 24.992C132.004 26.304 130.964 27.328 129.652 28.064C128.34 28.8 126.892 29.168 125.308 29.168ZM125.308 25.424C126.652 25.424 127.724 24.976 128.524 24.08C129.34 23.184 129.748 22 129.748 20.528C129.748 19.04 129.34 17.856 128.524 16.976C127.724 16.08 126.652 15.632 125.308 15.632C123.948 15.632 122.86 16.072 122.044 16.952C121.244 17.832 120.844 19.024 120.844 20.528C120.844 22.016 121.244 23.208 122.044 24.104C122.86 24.984 123.948 25.424 125.308 25.424ZM142.519 12.152C144.295 12.152 145.847 12.504 147.175 13.208C148.503 13.912 149.527 14.904 150.247 16.184C150.983 17.448 151.351 18.912 151.351 20.576C151.351 22.224 150.983 23.688 150.247 24.968C149.527 26.248 148.495 27.24 147.151 27.944C145.823 28.648 144.279 29 142.519 29H136.207V12.152H142.519ZM142.255 25.448C143.807 25.448 145.015 25.024 145.879 24.176C146.743 23.328 147.175 22.128 147.175 20.576C147.175 19.024 146.743 17.816 145.879 16.952C145.015 16.088 143.807 15.656 142.255 15.656H140.311V25.448H142.255ZM157.748 15.44V18.848H163.244V22.016H157.748V25.712H163.964V29H153.644V12.152H163.964V15.44H157.748Z" fill="white"/>
</svg>
